<?xml version="1.0" standalone="no"?>
<!DOCTYPE svg PUBLIC "-//W3C//DTD SVG 20010904//EN"
 "http://www.w3.org/TR/2001/REC-SVG-20010904/DTD/svg10.dtd">
<svg version="1.0" xmlns="http://www.w3.org/2000/svg"
 width="460.000000pt" height="460.000000pt" viewBox="0 0 460.000000 460.000000"
 preserveAspectRatio="xMidYMid meet">
<metadata>
Created by potrace 1.14, written by Peter Selinger 2001-2017
</metadata>
<g transform="translate(0.000000,460.000000) scale(0.100000,-0.100000)"
fill="#000000" stroke="none">
<path d="M1325 4594 c6 -2 9 -23 7 -46 -4 -41 20 -108 40 -108 4 0 8 -6 8 -13
0 -7 8 -22 18 -33 10 -10 31 -37 47 -59 17 -22 36 -46 43 -54 12 -12 10 -17
-10 -32 -12 -10 -31 -19 -40 -19 -9 0 -20 -4 -23 -10 -3 -5 -2 -10 4 -10 5 0
13 -10 17 -22 4 -12 17 -31 31 -41 13 -10 32 -36 43 -56 10 -21 35 -54 55 -74
20 -20 35 -38 33 -41 -4 -7 29 -51 69 -93 17 -18 39 -57 49 -86 9 -28 23 -61
31 -73 7 -11 10 -24 6 -27 -3 -4 -1 -7 5 -7 21 0 138 -129 153 -168 13 -34 11
-72 -3 -69 -16 3 -11 -35 5 -45 7 -4 8 -8 2 -8 -15 0 94 -100 110 -100 7 0 15
-4 17 -9 2 -5 32 -24 68 -44 64 -34 86 -57 55 -57 -9 0 -13 5 -10 10 3 6 2 10
-4 10 -5 0 -12 -6 -14 -12 -4 -10 -6 -10 -6 0 -1 18 -71 16 -71 -2 0 -8 -7
-17 -16 -20 -8 -3 -12 -10 -9 -16 3 -5 -1 -10 -10 -10 -9 0 -27 -12 -41 -27
-13 -14 -27 -23 -31 -20 -3 4 -14 -2 -23 -13 -9 -11 -32 -26 -51 -34 -19 -9
-30 -15 -25 -16 6 0 1 -7 -10 -15 -11 -8 -14 -14 -6 -15 16 0 -11 -29 -50 -54
-26 -17 -27 -17 -31 6 -3 17 -5 15 -6 -9 0 -18 -5 -33 -9 -33 -4 0 -14 -17
-21 -37 -8 -20 -24 -48 -37 -62 -13 -14 -24 -29 -24 -33 0 -4 -9 -10 -20 -13
-11 -4 -18 -10 -15 -15 3 -5 1 -11 -4 -14 -5 -3 -14 -20 -20 -38 l-11 -32 20
21 c11 12 20 27 20 32 0 5 5 13 11 17 13 7 2 -37 -11 -46 -13 -9 -9 -134 6
-187 11 -37 21 -53 32 -53 13 0 14 -2 4 -9 -11 -7 -11 -11 2 -24 24 -23 20
-35 -14 -42 -22 -5 -29 -11 -26 -23 14 -50 25 -103 29 -147 5 -48 15 -76 58
-172 23 -52 24 -60 2 -66 -15 -4 -14 -5 3 -6 11 0 29 -10 39 -21 10 -11 24
-20 30 -20 7 0 15 -17 19 -37 10 -63 9 -66 -24 -60 -22 5 -28 3 -24 -7 4 -11
-9 -11 -78 1 -144 25 -177 29 -172 22 3 -5 -18 -11 -46 -15 -27 -4 -50 -10
-50 -15 0 -5 -16 -9 -36 -9 -29 0 -34 -3 -26 -13 9 -10 3 -12 -26 -10 l-37 3
35 -14 c35 -14 32 -19 -15 -29 -18 -4 -18 -5 5 -15 21 -10 15 -11 -35 -7 l-60
4 45 -14 c42 -12 43 -13 15 -16 -16 -1 -38 -1 -49 0 -16 1 -17 -1 -6 -14 10
-13 9 -15 -9 -15 -14 0 -21 -6 -21 -20 0 -20 -16 -28 -22 -10 -2 6 -37 7 -90
3 -68 -5 -88 -9 -88 -21 0 -10 -6 -12 -17 -7 -10 4 -26 9 -35 12 -9 3 -14 11
-12 18 3 8 -10 14 -42 19 -65 9 -88 6 -35 -5 68 -13 67 -24 -2 -25 -35 -1 -54
1 -42 6 14 5 6 8 -30 13 -28 4 -60 9 -72 13 -13 3 -23 2 -23 -4 0 -5 23 -12
50 -16 52 -7 70 -26 24 -26 -14 0 -23 4 -19 10 7 11 -18 13 -52 4 -13 -4 -20
-11 -16 -20 4 -10 -3 -14 -23 -15 -17 -1 -22 -3 -11 -6 9 -2 17 -9 17 -15 0
-13 -87 -3 -150 16 -25 8 -67 16 -95 19 l-50 5 40 -13 c22 -8 52 -14 67 -14
15 -1 30 -5 33 -11 3 -5 24 -10 46 -10 21 0 39 -4 39 -10 0 -12 -70 -4 -155
17 -33 9 -80 17 -105 19 l-45 3 40 -13 39 -13 -34 -7 c-27 -5 -32 -9 -20 -16
11 -7 5 -10 -22 -10 -21 0 -38 5 -38 10 0 6 5 10 11 10 5 0 7 5 4 10 -3 6 -21
10 -38 10 l-32 -1 25 -15 c23 -13 17 -14 -70 -10 -60 3 -84 2 -65 -3 l30 -9
-32 -1 c-39 -1 -45 -18 -7 -18 14 0 31 -6 37 -13 9 -9 4 -11 -25 -9 -21 2 -38
-1 -38 -6 0 -4 19 -10 42 -12 68 -7 58 -13 -23 -14 -72 -1 -73 -2 -31 -12 53
-13 55 -27 2 -20 -26 4 -40 2 -40 -6 0 -6 8 -11 18 -11 10 0 22 -4 27 -9 6 -5
26 -11 45 -14 32 -3 31 -4 -10 -6 -41 -2 -43 -3 -20 -12 24 -10 24 -11 6 -25
-17 -12 -17 -14 -4 -14 9 0 20 -5 24 -12 5 -8 -5 -9 -39 -5 l-47 7 0 -665 0
-665 1918 0 1918 0 17 34 c9 19 30 45 47 57 17 13 37 33 45 46 14 20 13 26
-15 70 -16 26 -38 64 -49 83 -10 19 -42 66 -70 105 -28 38 -51 73 -51 78 0 5
-33 59 -74 120 -40 62 -83 131 -95 155 -28 55 -88 149 -100 157 -6 3 -13 27
-17 53 -9 62 -18 72 -68 72 -96 -1 -197 10 -243 25 -45 16 -183 25 -211 15 -8
-3 -29 26 -58 80 -33 63 -62 100 -110 144 -61 56 -64 60 -64 106 0 53 24 110
46 110 11 0 13 6 9 19 -3 11 -1 23 6 26 8 6 8 9 -1 15 -9 6 -8 15 4 38 9 17
16 40 16 51 0 10 4 21 10 23 5 2 11 20 13 41 2 20 12 46 21 56 9 9 13 21 9 24
-3 4 5 7 18 8 l24 1 -25 7 -25 7 27 7 c21 6 37 25 69 82 22 41 47 75 55 75 8
0 14 -4 14 -10 0 -6 17 -7 43 -3 79 13 253 9 270 -5 11 -10 29 -12 58 -7 23 4
39 3 36 -1 -3 -5 45 -7 106 -5 83 3 102 6 72 11 -33 6 -35 7 -11 9 42 2 109
-20 124 -41 7 -10 24 -18 37 -18 13 0 27 -4 30 -10 3 -5 21 -10 38 -11 26 0
28 -2 12 -8 -17 -7 -16 -9 10 -16 17 -4 46 -9 65 -11 19 -2 36 -8 38 -14 2 -5
10 -10 18 -10 26 0 78 -31 102 -61 21 -26 30 -29 80 -29 41 0 61 -5 76 -19 15
-13 27 -16 41 -11 17 7 17 9 3 9 -10 1 -18 8 -18 16 0 16 12 20 24 8 13 -13
76 -31 81 -23 3 5 1 12 -5 15 -6 4 -8 21 -4 42 6 29 4 35 -8 31 -18 -7 -52 17
-44 31 8 13 -64 12 -80 -1 -13 -9 -44 -1 -44 12 0 5 -8 11 -17 14 -10 2 -1 2
20 -1 57 -8 44 2 -35 28 -40 13 -84 29 -98 36 -31 16 -47 16 -52 2 -3 -8 -15
-6 -41 4 -39 17 -52 33 -17 22 11 -3 20 -4 20 -1 0 6 -77 30 -98 31 -7 0 -17
6 -21 14 -5 7 -14 11 -20 7 -11 -7 -79 7 -116 24 -30 14 -289 41 -475 51 -206
10 -193 8 -185 33 3 12 9 49 12 84 3 34 8 62 12 62 10 0 8 75 -3 82 -7 5 -6
18 2 41 7 18 12 62 13 98 0 43 3 58 9 44 5 -14 8 -2 7 37 -1 32 2 60 5 64 4 3
20 -3 36 -15 17 -12 34 -21 39 -21 6 0 18 -9 28 -20 10 -11 21 -18 25 -15 4 2
31 -16 61 -41 30 -25 64 -54 77 -65 12 -10 25 -19 27 -19 3 0 16 -9 28 -21 51
-48 158 -88 285 -105 122 -17 224 -15 460 12 34 4 58 2 67 -6 8 -6 19 -9 24
-6 13 8 41 -33 41 -60 0 -12 6 -26 13 -32 16 -14 58 -5 75 17 9 11 29 16 61
16 52 0 53 0 50 -72 -1 -35 0 -78 2 -100 1 -10 -1 -36 -4 -58 -3 -22 -4 -31
-1 -21 4 11 12 26 19 33 8 7 17 35 20 61 8 53 21 101 41 150 19 46 18 64 -15
183 -28 99 -32 106 -82 152 -30 26 -72 53 -94 59 -22 7 -42 15 -45 18 -9 11
-112 30 -205 39 -71 6 -92 5 -98 -6 -5 -7 -25 -13 -48 -13 -32 0 -42 -4 -46
-20 -6 -21 -32 -27 -48 -11 -16 14 -113 19 -131 7 -23 -17 -7 -46 25 -46 38 0
50 -16 44 -56 -4 -25 -2 -34 8 -34 11 0 11 -2 -1 -10 -21 -14 -68 -12 -72 2
-3 9 -12 8 -31 -5 -29 -19 -92 -22 -132 -7 -17 7 -32 24 -42 50 -9 22 -19 37
-23 35 -11 -7 -47 37 -54 67 -3 15 -19 35 -35 44 -16 10 -32 27 -35 38 -9 31
-7 64 3 68 5 2 12 18 16 36 5 25 3 32 -9 32 -9 0 -16 8 -16 20 0 11 5 20 11
20 12 0 1 93 -12 98 -5 2 -9 13 -9 25 0 11 -7 28 -15 37 -14 15 -13 21 10 54
14 20 25 41 25 46 0 6 5 10 10 10 13 0 2 72 -13 81 -6 4 -7 15 -2 25 5 11 10
28 11 39 1 11 4 27 6 35 2 10 -4 14 -20 12 -15 -2 -25 4 -31 20 -5 13 -19 31
-31 41 -12 10 -20 27 -19 40 2 12 -2 31 -8 42 -6 11 -9 30 -7 43 2 12 -3 34
-12 47 -9 14 -16 41 -16 61 0 40 -12 57 -46 68 -13 4 -25 19 -28 34 -4 15 -13
35 -21 44 -15 17 -15 31 3 115 3 18 12 38 20 44 8 6 14 22 14 34 0 13 6 25 13
27 15 6 17 98 2 98 -5 0 -3 5 5 10 8 5 10 10 4 10 -13 0 9 129 23 139 18 12
63 98 63 120 0 12 4 19 10 16 6 -3 10 1 10 10 0 8 12 33 26 55 23 35 25 42 14
74 l-12 36 -1026 -1 c-565 0 -1022 -3 -1017 -5z m905 -99 c0 -8 -4 -15 -8 -15
-5 0 -9 7 -9 15 0 8 4 15 9 15 4 0 8 -7 8 -15z m14 -67 c-3 -5 0 -8 5 -8 13 0
10 -22 -4 -32 -6 -4 -2 -8 8 -8 10 0 16 -4 12 -9 -3 -5 -1 -12 5 -16 5 -3 17
-22 26 -41 10 -20 24 -39 33 -42 9 -3 22 -12 29 -19 11 -11 11 -13 0 -14 -7 0
-5 -4 5 -8 10 -4 17 -9 15 -12 -5 -8 50 -59 64 -59 9 0 9 -3 -2 -10 -11 -7
-11 -10 -2 -10 7 0 10 -5 7 -11 -4 -5 3 -19 16 -30 15 -13 18 -19 8 -20 -10 0
-11 -2 -1 -6 14 -6 17 -53 2 -53 -5 0 -10 -7 -10 -15 0 -8 -9 -15 -20 -15 -11
0 -20 7 -20 15 0 8 -4 15 -10 15 -5 0 -10 9 -10 21 0 11 -4 17 -10 14 -5 -3
-10 -2 -10 3 0 6 -11 13 -25 16 -14 4 -25 11 -25 16 0 5 -7 7 -14 4 -19 -7
-48 20 -75 69 -18 32 -20 50 -17 132 3 52 1 95 -3 95 -7 0 -8 21 -3 69 2 11 6
10 16 -4 8 -11 12 -23 10 -27z m-71 -626 c15 -6 39 -12 52 -12 14 0 25 -4 25
-10 0 -5 16 -25 36 -44 33 -32 35 -37 21 -51 -9 -8 -20 -15 -24 -14 -21 4 -33
-2 -33 -16 0 -8 4 -15 8 -15 4 0 8 -9 9 -20 3 -37 52 -85 101 -99 97 -27 203
-95 187 -120 -3 -6 2 -11 12 -11 15 0 16 -2 3 -10 -13 -8 -12 -10 4 -10 12 0
16 -5 12 -15 -4 -10 1 -15 17 -16 12 0 16 -3 9 -6 -6 -2 -10 -9 -6 -14 3 -5 3
-23 -1 -39 -5 -25 -12 -30 -36 -30 -16 0 -29 5 -29 10 0 6 -11 10 -25 10 -26
0 -35 -24 -12 -33 6 -3 -8 -2 -33 0 -57 7 -88 22 -45 23 22 0 26 3 16 9 -8 6
-24 6 -38 0 -19 -7 -23 -5 -23 11 0 13 -5 18 -15 14 -23 -9 -45 15 -45 47 0
16 -4 29 -10 29 -13 0 -80 66 -80 79 0 6 -6 11 -12 11 -7 0 -2 7 10 16 30 21
28 34 -5 33 -16 0 -22 -3 -15 -6 6 -2 10 -9 6 -14 -3 -5 -10 -7 -15 -4 -12 8
-12 45 0 45 5 0 7 14 6 30 -1 17 1 33 6 35 12 8 0 37 -27 63 -30 28 -51 69
-54 102 -4 43 0 75 8 65 4 -6 20 -16 35 -23z m121 -458 c4 -10 1 -14 -6 -12
-15 5 -23 28 -10 28 5 0 13 -7 16 -16z m348 -86 c-6 -6 -15 -8 -19 -4 -4 4 -1
11 7 16 19 12 27 3 12 -12z m309 -248 c6 0 7 -5 4 -10 -10 -16 -25 -1 -24 23
1 17 2 18 6 5 2 -10 9 -18 14 -18z m-31 -7 c0 -7 11 -15 25 -19 14 -3 25 -13
25 -21 0 -8 5 -11 10 -8 6 3 10 -3 10 -14 0 -12 6 -21 14 -21 8 0 17 -8 20
-18 5 -13 85 -72 100 -72 2 0 1 11 -1 24 -4 21 -2 23 24 18 15 -2 34 -9 41
-15 16 -13 93 -27 86 -16 -8 14 12 10 24 -3 5 -7 13 -35 17 -63 4 -30 17 -64
33 -85 27 -35 58 -111 64 -153 1 -12 22 -41 46 -64 24 -24 38 -43 33 -43 -17
0 -109 84 -110 100 -1 8 -14 29 -30 46 -32 34 -81 124 -81 149 0 9 -9 15 -25
15 -14 0 -25 5 -25 10 0 6 -9 10 -21 10 -23 0 -129 60 -129 72 0 5 -7 8 -15 8
-9 0 -23 13 -32 28 -9 16 -29 34 -45 40 -19 7 -28 18 -29 34 0 12 -3 17 -6 11
-6 -17 -40 6 -57 39 -12 22 -11 24 11 24 12 0 23 -6 23 -13z m1090 -493 c9
-17 8 -20 -14 -20 -13 0 -26 6 -29 14 -12 31 27 36 43 6z m267 -166 c-3 -3
-12 -4 -19 -1 -8 3 -5 6 6 6 11 1 17 -2 13 -5z m-267 -494 c11 -8 7 -9 -15 -4
-37 8 -45 14 -19 14 10 0 26 -5 34 -10z m85 -60 c13 -6 15 -9 5 -9 -8 0 -22 4
-30 9 -18 12 -2 12 25 0z m-2855 -140 c12 -8 11 -10 -7 -10 -13 0 -23 5 -23
10 0 13 11 13 30 0z m-85 -21 c10 -15 -3 -25 -16 -12 -6 6 -19 9 -28 6 -14 -4
-14 -3 -1 6 19 14 37 14 45 0z m-707 -76 c-10 -2 -26 -2 -35 0 -10 3 -2 5 17
5 19 0 27 -2 18 -5z m1134 -2 c2 -5 33 -4 72 1 50 7 71 6 76 -2 4 -7 11 -11
16 -10 5 1 13 -5 19 -14 7 -11 3 -20 -13 -35 l-23 -19 78 -7 c48 -5 88 -4 105
3 18 7 30 7 34 0 8 -13 -4 -111 -21 -174 -13 -44 -20 -54 -60 -75 -35 -20 -55
-41 -83 -90 -38 -66 -74 -92 -148 -109 -44 -10 -65 11 -30 29 13 7 29 23 36
35 6 12 29 33 51 46 41 26 49 40 24 40 -8 0 -15 -3 -15 -8 0 -4 -8 -12 -18
-17 -54 -30 -81 -52 -102 -84 -14 -20 -24 -39 -23 -42 3 -9 -151 -29 -222 -29
-37 0 -85 -9 -125 -23 -69 -25 -210 -120 -210 -142 0 -7 -9 -23 -19 -36 -18
-23 -20 -23 -38 -6 -11 9 -24 17 -30 17 -22 0 -62 41 -57 58 22 67 63 111 106
112 15 0 43 -7 62 -17 34 -16 36 -16 75 10 22 15 51 27 65 27 13 0 34 8 46 18
22 18 22 22 11 65 -10 43 -9 53 13 104 24 57 24 58 5 67 -31 15 -23 33 44 100
34 34 73 77 86 95 32 44 119 101 154 101 16 0 26 4 22 10 -3 6 3 10 14 10 10
0 21 -4 23 -9z m-1373 -27 c2 -2 -14 -4 -37 -4 -23 0 -42 5 -42 10 0 10 67 4
79 -6z m350 12 c-9 -9 -69 -13 -75 -5 -3 5 14 9 37 9 23 0 40 -2 38 -4z m-402
-42 c-3 -3 -12 -4 -19 -1 -8 3 -5 6 6 6 11 1 17 -2 13 -5z m594 -1192 c7 -35
4 -51 -22 -114 -39 -92 -43 -96 -59 -59 -7 17 -16 31 -20 31 -11 0 -33 97 -26
116 3 8 11 12 17 8 7 -4 9 -3 6 3 -8 12 34 43 57 43 8 0 18 -5 22 -12 4 -6 3
-8 -2 -5 -5 3 -10 -3 -10 -13 0 -10 3 -17 7 -14 4 2 10 -2 13 -8 3 -7 4 6 2
30 -5 52 2 49 15 -6z"/>
<path d="M2461 4044 c0 -11 3 -14 6 -6 3 7 2 16 -1 19 -3 4 -6 -2 -5 -13z"/>
<path d="M2328 3513 c7 -3 16 -2 19 1 4 3 -2 6 -13 5 -11 0 -14 -3 -6 -6z"/>
<path d="M2408 3313 c7 -3 16 -2 19 1 4 3 -2 6 -13 5 -11 0 -14 -3 -6 -6z"/>
<path d="M3155 2790 c3 -5 11 -10 16 -10 6 0 7 5 4 10 -3 6 -11 10 -16 10 -6
0 -7 -4 -4 -10z"/>
<path d="M1755 1201 c3 -5 -2 -12 -10 -14 -12 -4 -12 -5 1 -3 19 1 32 26 14
26 -6 0 -9 -4 -5 -9z"/>
<path d="M4098 4580 c-12 -13 -13 -20 -5 -24 9 -3 9 -5 0 -5 -7 -1 -13 -8 -13
-18 0 -9 -12 -32 -27 -51 -21 -29 -24 -38 -15 -53 13 -20 16 -138 6 -177 l-7
-23 -11 23 c-13 26 -34 33 -56 18 -13 -8 -13 -11 -1 -19 7 -5 10 -14 7 -20 -4
-6 -2 -11 3 -11 6 0 11 -5 11 -11 0 -5 -4 -8 -9 -5 -5 4 -12 0 -14 -6 -3 -8
-6 -6 -6 5 -1 19 -29 23 -36 5 -3 -7 -6 -29 -8 -48 -2 -20 -7 -42 -11 -49 -5
-7 -4 -16 2 -20 5 -3 10 -23 10 -45 0 -21 4 -41 10 -45 5 -3 8 -32 7 -63 -2
-41 1 -58 11 -62 8 -3 14 -15 14 -27 0 -18 4 -20 25 -15 14 4 25 4 25 0 0 -3
-23 -37 -51 -74 -47 -64 -72 -86 -92 -81 -5 1 -6 -2 -3 -7 2 -4 -18 -29 -45
-56 -27 -26 -49 -54 -49 -61 0 -7 -7 -21 -16 -29 -8 -9 -12 -16 -7 -16 4 0 1
-5 -7 -10 -26 -17 52 -12 85 6 17 8 54 22 84 30 29 7 60 19 67 25 8 7 17 9 20
6 8 -7 -18 -67 -29 -67 -4 0 -21 -14 -37 -30 -16 -17 -43 -33 -60 -37 -17 -3
-36 -13 -43 -22 -7 -9 -22 -16 -35 -15 -12 1 -25 -3 -28 -8 -3 -4 -10 -6 -15
-3 -12 8 -12 -7 1 -40 8 -20 15 -26 30 -22 11 3 18 1 14 -4 -3 -5 -12 -9 -21
-9 -10 0 -13 -6 -9 -16 3 -9 6 -18 6 -20 0 -2 7 -4 15 -4 8 0 15 -9 15 -20 0
-11 -5 -20 -11 -20 -6 0 -9 -7 -5 -15 3 -9 0 -15 -10 -15 -13 0 -34 -37 -34
-59 0 -4 30 -7 67 -7 45 1 68 -3 70 -11 3 -7 13 -13 23 -13 9 0 23 -7 30 -15
7 -8 18 -15 25 -15 6 0 22 -9 35 -20 13 -11 36 -20 52 -20 17 0 27 -4 23 -10
-7 -11 31 -28 62 -30 10 0 27 -1 38 -2 21 -1 148 25 176 37 10 3 20 2 24 -4 3
-6 0 -11 -7 -12 -28 -1 29 -18 65 -18 23 -1 36 -5 32 -11 -3 -5 -1 -10 5 -10
6 0 27 -11 48 -23 20 -13 49 -27 65 -31 l27 -6 0 840 0 840 -242 -1 c-223 -1
-244 -2 -260 -19z m-151 -452 c-3 -8 -6 -5 -6 6 -1 11 2 17 5 13 3 -3 4 -12 1
-19z"/>
<path d="M3314 4060 c0 -13 7 -20 18 -20 10 0 18 5 18 11 0 5 -4 7 -10 4 -5
-3 -10 1 -10 9 0 9 -4 16 -8 16 -4 0 -8 -9 -8 -20z"/>
<path d="M3620 3090 c0 -5 9 -10 20 -10 11 0 20 5 20 10 0 6 -9 10 -20 10 -11
0 -20 -4 -20 -10z"/>
<path d="M4430 2190 c0 -5 5 -10 11 -10 5 0 7 5 4 10 -3 6 -8 10 -11 10 -2 0
-4 -4 -4 -10z"/>
<path d="M3133 2113 c9 -2 23 -2 30 0 6 3 -1 5 -18 5 -16 0 -22 -2 -12 -5z"/>
<path d="M3363 2113 c9 -2 23 -2 30 0 6 3 -1 5 -18 5 -16 0 -22 -2 -12 -5z"/>
<path d="M1605 2001 c19 -8 19 -9 -5 -13 -20 -4 -17 -5 10 -6 36 -1 92 16 59
17 -9 1 -32 3 -50 6 -25 4 -29 3 -14 -4z"/>
<path d="M4417 1958 c-3 -18 -9 -42 -13 -52 -5 -14 -4 -17 5 -12 9 6 10 1 5
-18 -8 -35 0 -33 23 7 20 34 42 115 23 87 -5 -8 -10 -23 -10 -32 0 -17 -17
-34 -26 -25 -2 2 0 15 5 29 5 14 6 30 2 37 -5 8 -10 0 -14 -21z"/>
<path d="M1178 1973 c7 -3 16 -2 19 1 4 3 -2 6 -13 5 -11 0 -14 -3 -6 -6z"/>
<path d="M1515 1970 c17 -4 48 -8 70 -8 38 0 38 1 10 8 -16 4 -48 8 -70 8 -38
0 -38 -1 -10 -8z"/>
<path d="M2975 1960 c-3 -5 3 -10 15 -10 12 0 18 5 15 10 -3 6 -10 10 -15 10
-5 0 -12 -4 -15 -10z"/>
<path d="M1495 1950 c17 -4 44 -8 60 -8 25 0 24 2 -10 9 -51 10 -92 10 -50 -1z"/>
<path d="M3484 1899 c-22 -5 -14 -7 31 -10 33 -1 68 -3 77 -3 9 0 15 -3 12 -8
-3 -4 11 -8 31 -8 23 0 34 4 30 10 -4 6 -15 8 -26 5 -10 -4 -19 -2 -19 3 0 12
-96 19 -136 11z"/>
<path d="M3320 1890 c18 -7 0 -8 -63 -5 -58 4 -86 2 -82 -5 3 -5 21 -10 40
-10 19 0 37 -4 40 -10 3 -5 20 -10 36 -10 18 0 28 4 24 10 -4 6 6 10 22 11 62
1 113 19 56 19 -17 0 -46 2 -64 5 -30 4 -31 4 -9 -5z"/>
<path d="M3440 1871 c0 -6 5 -10 11 -8 23 4 21 -24 -1 -30 -22 -6 -22 -7 -5
-20 18 -12 17 -13 -6 -13 -34 -1 -6 -16 44 -23 39 -6 53 9 15 16 -13 2 6 5 42
7 43 1 57 4 41 9 -14 4 -26 12 -29 19 -3 9 7 11 40 6 42 -6 42 -6 21 10 -13
10 -48 18 -80 20 -32 2 -66 7 -75 11 -11 4 -18 3 -18 -4z"/>
<path d="M4391 1864 c0 -11 3 -14 6 -6 3 7 2 16 -1 19 -3 4 -6 -2 -5 -13z"/>
<path d="M330 1860 c0 -5 -8 -7 -17 -4 -15 5 -16 4 -3 -5 8 -6 34 -11 58 -11
23 0 42 -4 42 -10 0 -5 7 -10 15 -10 8 0 15 5 15 10 0 6 -7 10 -15 10 -8 0
-15 5 -15 11 0 5 -4 8 -9 4 -5 -3 -12 -1 -16 5 -8 13 -55 13 -55 0z"/>
<path d="M3680 1861 c0 -6 8 -11 18 -11 10 0 41 -6 70 -14 29 -7 52 -10 52 -6
0 5 -24 13 -52 20 -29 6 -61 14 -70 17 -10 2 -18 0 -18 -6z"/>
<path d="M551 1849 c13 -8 97 -13 88 -5 -2 2 -26 6 -53 9 -30 3 -43 1 -35 -4z"/>
<path d="M3088 1853 c6 -2 18 -2 25 0 6 3 1 5 -13 5 -14 0 -19 -2 -12 -5z"/>
<path d="M3133 1853 c10 -17 56 -25 75 -14 15 9 15 10 1 11 -9 0 -31 3 -49 7
-22 4 -31 3 -27 -4z"/>
<path d="M225 1841 c11 -5 47 -11 80 -14 34 -3 49 -2 35 2 -34 11 -140 21
-115 12z"/>
<path d="M3844 1826 c1 -15 7 -21 24 -20 17 0 21 -4 16 -18 -4 -13 0 -18 15
-18 16 0 21 -6 21 -25 0 -18 -4 -23 -15 -19 -33 13 -12 -7 23 -21 20 -9 46
-26 57 -39 27 -31 54 -44 76 -39 23 6 25 19 4 27 -8 3 -12 12 -9 20 4 10 -3
20 -20 27 -14 7 -26 18 -26 25 0 17 -61 66 -121 98 l-46 24 1 -22z m33 -12
c-3 -3 -12 -4 -19 -1 -8 3 -5 6 6 6 11 1 17 -2 13 -5z"/>
<path d="M3029 1831 c10 -6 5 -11 -18 -16 -19 -4 -37 -2 -45 5 -11 8 -15 8
-18 -2 -4 -10 -8 -10 -21 1 -11 9 -17 10 -17 2 0 -6 3 -12 8 -12 4 -1 23 -3
42 -5 19 -2 43 -6 53 -8 9 -2 15 -1 12 4 -7 11 22 21 40 14 8 -4 15 -1 15 5 0
6 9 11 21 11 13 0 18 -4 13 -12 -4 -7 -3 -8 5 -4 23 14 -1 26 -52 26 -34 0
-47 -3 -38 -9z"/>
<path d="M450 1813 l-25 -15 30 8 c17 4 48 10 70 14 l40 7 -45 1 c-25 0 -56
-7 -70 -15z"/>
<path d="M0 1810 c0 -5 5 -10 11 -10 5 0 7 5 4 10 -3 6 -8 10 -11 10 -2 0 -4
-4 -4 -10z"/>
<path d="M105 1790 c26 -11 55 -12 55 -2 0 4 -17 8 -38 9 -28 1 -32 -1 -17 -7z"/>
<path d="M38 1773 c7 -3 16 -2 19 1 4 3 -2 6 -13 5 -11 0 -14 -3 -6 -6z"/>
<path d="M3440 1750 c0 -5 9 -10 20 -10 43 0 17 -20 -27 -21 -28 -1 -37 -4
-21 -6 14 -2 29 -11 32 -19 3 -8 2 -13 -2 -10 -4 2 -33 8 -65 11 -47 6 -57 4
-57 -8 0 -8 -9 -17 -20 -20 -11 -3 -20 -12 -20 -20 0 -10 7 -13 18 -11 9 3 28
1 42 -5 22 -9 20 -10 -20 -11 -33 -2 -39 -4 -22 -8 13 -4 23 -11 22 -17 -1 -5
7 -12 17 -16 13 -6 10 -8 -14 -8 -22 -1 -42 -11 -63 -31 -17 -16 -36 -30 -41
-30 -6 0 -9 -6 -6 -14 4 -10 -5 -16 -29 -21 -19 -3 -32 -10 -29 -15 8 -13 80
-7 78 7 -2 7 16 9 55 7 44 -4 53 -2 39 6 -19 12 -14 30 9 30 8 0 14 -8 14 -17
0 -10 4 -14 8 -8 4 6 22 18 41 29 28 15 35 16 42 5 6 -9 9 -10 9 -2 0 6 -8 19
-17 29 -16 16 -16 16 6 9 18 -5 22 -3 19 12 -2 10 -14 21 -28 24 -24 6 -24 7
7 14 18 4 30 11 27 16 -3 5 1 9 8 10 7 0 4 5 -7 10 -18 8 -17 9 4 5 31 -6 51
10 50 38 0 11 -3 15 -6 9 -2 -7 -12 -13 -20 -13 -12 0 -13 3 -4 13 6 8 8 17 4
20 -3 4 6 7 20 7 25 0 26 2 15 20 -9 14 -24 20 -50 20 -21 0 -38 -4 -38 -10z
m-30 -90 c12 -8 9 -10 -12 -10 -15 0 -30 5 -33 10 -8 13 25 13 45 0z m-105
-110 c-3 -5 -11 -10 -16 -10 -6 0 -7 5 -4 10 3 6 11 10 16 10 6 0 7 -4 4 -10z
m-20 -40 c3 -5 1 -10 -4 -10 -6 0 -11 5 -11 10 0 6 2 10 4 10 3 0 8 -4 11 -10z"/>
<path d="M3835 1750 c3 -5 13 -10 21 -10 8 0 12 5 9 10 -3 6 -13 10 -21 10 -8
0 -12 -4 -9 -10z"/>
<path d="M948 1713 c6 -2 18 -2 25 0 6 3 1 5 -13 5 -14 0 -19 -2 -12 -5z"/>
<path d="M4288 1713 c6 -2 12 -11 12 -19 0 -17 17 -19 23 -1 3 7 6 4 6 -6 1
-10 6 -15 11 -12 6 4 8 11 5 16 -4 5 0 9 7 10 19 1 -33 17 -57 17 -11 0 -14
-2 -7 -5z"/>
<path d="M1016 1701 c5 -5 25 -12 44 -15 l35 -6 -30 15 c-34 16 -64 20 -49 6z"/>
<path d="M710 1690 c8 -5 20 -10 25 -10 6 0 3 5 -5 10 -8 5 -19 10 -25 10 -5
0 -3 -5 5 -10z"/>
<path d="M905 1690 c3 -5 16 -10 28 -9 21 0 21 1 2 9 -28 12 -37 12 -30 0z"/>
<path d="M4250 1691 c0 -6 4 -13 10 -16 6 -3 7 1 4 9 -7 18 -14 21 -14 7z"/>
<path d="M985 1670 c3 -5 15 -10 26 -10 11 0 17 5 14 10 -3 6 -15 10 -26 10
-11 0 -17 -4 -14 -10z"/>
<path d="M1055 1660 c-3 -5 1 -10 9 -10 9 0 16 5 16 10 0 6 -4 10 -9 10 -6 0
-13 -4 -16 -10z"/>
<path d="M328 1653 c6 -2 18 -2 25 0 6 3 1 5 -13 5 -14 0 -19 -2 -12 -5z"/>
<path d="M4580 1610 c-7 -17 -18 -34 -24 -38 -7 -4 -25 -24 -41 -45 -15 -21
-46 -47 -67 -58 -28 -14 -45 -34 -64 -73 -23 -46 -33 -55 -81 -76 -48 -21 -83
-51 -83 -72 0 -4 12 -3 26 3 15 5 35 7 46 3 19 -6 58 -80 58 -110 0 -8 8 -17
18 -20 62 -20 72 -27 72 -50 0 -17 8 -28 26 -34 35 -14 55 -36 48 -53 -6 -15
20 -47 38 -47 6 0 20 -7 30 -17 17 -16 18 -4 18 350 0 202 -2 367 -4 367 -2 0
-9 -14 -16 -30z"/>
<path d="M313 1623 c9 -2 25 -2 35 0 9 3 1 5 -18 5 -19 0 -27 -2 -17 -5z"/>
<path d="M480 1620 c0 -5 5 -10 10 -10 6 0 10 5 10 10 0 6 -4 10 -10 10 -5 0
-10 -4 -10 -10z"/>
<path d="M550 1610 c8 -5 20 -10 25 -10 6 0 3 5 -5 10 -8 5 -19 10 -25 10 -5
0 -3 -5 5 -10z"/>
<path d="M139 1581 c12 -8 51 -4 51 5 0 2 -15 4 -32 4 -23 0 -29 -3 -19 -9z"/>
<path d="M5 1540 c3 -5 10 -10 16 -10 5 0 9 5 9 10 0 6 -7 10 -16 10 -8 0 -12
-4 -9 -10z"/>
<path d="M3105 1441 c-3 -6 -3 -11 0 -11 15 0 -25 -30 -42 -31 -11 0 -13 -3
-5 -6 21 -8 62 6 62 22 0 11 6 12 23 6 15 -6 29 -4 42 5 18 13 17 14 -12 14
-17 0 -38 3 -46 6 -8 3 -18 1 -22 -5z"/>
<path d="M8 1393 c7 -3 16 -2 19 1 4 3 -2 6 -13 5 -11 0 -14 -3 -6 -6z"/>
<path d="M3012 1358 c-2 -10 -13 -18 -23 -18 -23 0 -25 -16 -3 -24 19 -7 17
-8 33 22 6 12 18 22 26 22 7 0 17 4 20 10 4 6 -5 9 -21 8 -16 -2 -29 -10 -32
-20z"/>
<path d="M2948 1303 c6 -2 18 -2 25 0 6 3 1 5 -13 5 -14 0 -19 -2 -12 -5z"/>
<path d="M2912 1265 c-6 -14 -8 -25 -4 -25 12 0 32 23 32 37 0 22 -16 15 -28
-12z"/>
</g>
</svg>
